<?xml version="1.0" encoding="utf-8"?>
<!-- Generator: Adobe Illustrator 12.0.0, SVG Export Plug-In  -->
<!DOCTYPE svg PUBLIC "-//W3C//DTD SVG 1.1//EN" "http://www.w3.org/Graphics/SVG/1.1/DTD/svg11.dtd" [
	<!ENTITY ns_flows "http://ns.adobe.com/Flows/1.0/">
	<!ENTITY ns_svg "http://www.w3.org/2000/svg">
	<!ENTITY ns_xlink "http://www.w3.org/1999/xlink">
]>
<svg  version="1.1" xmlns="&ns_svg;" xmlns:xlink="&ns_xlink;" xmlns:a="http://ns.adobe.com/AdobeSVGViewerExtensions/3.0/"
	 width="245" height="46" viewBox="-0.748 -0.946 245 46" enable-background="new -0.748 -0.946 245 46" xml:space="preserve">
<defs>
</defs>
<path fill="#FFFFFF" stroke="#FFFFFF" d="M18.98,38.66h-0.096c-1.728,2.544-4.464,4.272-7.632,4.272
	C4.34,42.932,0.5,37.22,0.5,30.788c0-6.144,4.08-11.76,10.56-11.76c3.36,0,6.048,1.728,7.824,4.416h0.096V0.5h4.32v41.664h-4.32
	V38.66z M19.22,30.932c0-4.368-2.64-8.064-7.296-8.064c-4.464,0-7.104,3.888-7.104,8.064c0,4.224,2.544,8.16,7.104,8.16
	C16.628,39.092,19.22,35.348,19.22,30.932z"/>
<path fill="#FFFFFF" stroke="#FFFFFF" d="M51.428,42.164h-4.32V38.66h-0.096c-1.728,2.544-4.416,4.272-7.632,4.272
	c-6.864,0-10.752-5.712-10.752-12.144c0-6.144,4.08-11.76,10.608-11.76c3.312,0,6,1.728,7.776,4.416h0.096V19.7h4.32V42.164z
	 M47.348,30.932c0-4.368-2.64-8.064-7.296-8.064c-4.464,0-7.104,3.888-7.104,8.064c0,4.224,2.544,8.16,7.104,8.16
	C44.756,39.092,47.348,35.348,47.348,30.932z"/>
<path fill="#FFFFFF" stroke="#FFFFFF" d="M63.428,42.164h-4.32V23.732h-2.352V19.7h2.352v-8.592h4.32V19.7h4.224v4.032h-4.224
	V42.164z"/>
<path fill="#FFFFFF" stroke="#FFFFFF" d="M92.516,42.164h-4.32V38.66H88.1c-1.728,2.544-4.416,4.272-7.632,4.272
	c-6.864,0-10.752-5.712-10.752-12.144c0-6.144,4.08-11.76,10.608-11.76c3.312,0,6,1.728,7.776,4.416h0.096V19.7h4.32V42.164z
	 M88.436,30.932c0-4.368-2.64-8.064-7.296-8.064c-4.464,0-7.104,3.888-7.104,8.064c0,4.224,2.544,8.16,7.104,8.16
	C85.843,39.092,88.436,35.348,88.436,30.932z"/>
<path fill="#FFFFFF" stroke="#FFFFFF" d="M108.595,24.836c-0.528-1.104-1.632-1.968-2.88-1.968c-1.2,0-2.352,0.96-2.352,2.208
	c0,1.968,2.592,2.832,5.232,4.032c2.64,1.2,5.184,2.832,5.184,6.384c0,4.272-3.552,7.44-7.728,7.44c-3.264,0-6.576-1.872-7.776-5.04
	l3.696-1.68c0.912,1.68,2.016,2.88,4.08,2.88c1.824,0,3.408-1.248,3.408-3.168c0-1.2-0.576-1.776-1.584-2.448l-4.224-2.256
	c-2.496-1.344-4.32-2.592-4.32-5.664c0-3.648,2.976-6.528,6.624-6.528c2.736,0,4.944,1.488,6.144,3.936L108.595,24.836z"/>
<path fill="#FFFFFF" stroke="#FFFFFF" d="M122.035,31.652c0.048,3.84,2.64,7.44,6.768,7.44c3.312,0,5.088-1.68,6.72-4.368
	l3.648,2.064c-2.112,3.888-6.048,6.144-10.416,6.144c-6.864,0-11.04-5.184-11.04-11.808c0-6.912,3.696-12.096,10.944-12.096
	c7.152,0,10.512,5.28,10.512,11.952v0.672H122.035z M134.851,28.388c-0.528-3.36-2.736-5.616-6.192-5.616
	c-3.36,0-5.856,2.4-6.384,5.616H134.851z"/>
<path fill="#FFFFFF" stroke="#FFFFFF" d="M148.915,23.348h0.144c1.056-2.64,3.264-4.32,6.144-4.32c1.248,0,2.496,0.432,3.552,1.104
	l-1.968,3.936c-0.768-0.672-1.632-0.912-2.64-0.912c-4.656,0-5.232,4.32-5.232,7.968v11.04h-4.32V19.7h4.32V23.348z"/>
<path fill="#FFFFFF" stroke="#FFFFFF" d="M172.194,33.716l6.479-14.016h4.849l-11.328,23.232L160.914,19.7h4.848L172.194,33.716z"/>
<path fill="#FFFFFF" stroke="#FFFFFF" d="M193.41,9.428c0,1.632-1.344,2.928-2.977,2.928c-1.632,0-2.976-1.296-2.976-2.928
	c0-1.68,1.344-3.024,2.976-3.024C192.066,6.404,193.41,7.748,193.41,9.428z M192.594,42.164h-4.32V19.7h4.32V42.164z"/>
<path fill="#FFFFFF" stroke="#FFFFFF" d="M217.458,26.084c-1.729-1.968-3.84-3.024-6.433-3.024c-4.224,0-7.487,3.744-7.487,7.872
	c0,4.608,3.216,7.968,7.775,7.968c2.496,0,4.513-1.152,6.145-2.976v5.52c-1.968,1.056-3.937,1.488-6.192,1.488
	c-6.624,0-12.048-5.088-12.048-11.808c0-6.96,5.376-12.096,12.288-12.096c2.016,0,4.224,0.48,5.952,1.488V26.084z"/>
<path fill="#FFFFFF" stroke="#FFFFFF" d="M226.146,31.652c0.048,3.84,2.64,7.44,6.768,7.44c3.313,0,5.088-1.68,6.72-4.368
	l3.648,2.064c-2.112,3.888-6.048,6.144-10.416,6.144c-6.864,0-11.04-5.184-11.04-11.808c0-6.912,3.696-12.096,10.944-12.096
	c7.151,0,10.512,5.28,10.512,11.952v0.672H226.146z M238.961,28.388c-0.527-3.36-2.735-5.616-6.191-5.616
	c-3.36,0-5.856,2.4-6.385,5.616H238.961z"/>
</svg>
