<?xml version="1.0" encoding="utf-8"?>
<!-- Generator: Adobe Illustrator 16.0.2, SVG Export Plug-In . SVG Version: 6.00 Build 0)  -->
<!DOCTYPE svg PUBLIC "-//W3C//DTD SVG 1.1//EN" "http://www.w3.org/Graphics/SVG/1.1/DTD/svg11.dtd">
<svg version="1.1" id="Layer_1" xmlns="http://www.w3.org/2000/svg" xmlns:xlink="http://www.w3.org/1999/xlink" x="0px" y="0px"
	 width="292.93px" height="81.818px" viewBox="0 0 292.93 81.818" enable-background="new 0 0 292.93 81.818" xml:space="preserve">
<path fill="#FFFFFF" d="M93.436,34.247c0,4.48,2.629,8.72,7.5,8.72c5.02,0,7.649-4.046,7.649-8.671c0-4.575-2.874-8.278-7.696-8.278
	C96.357,26.017,93.436,29.962,93.436,34.247 M93.63,26.309h0.095c1.9-2.532,4.728-3.896,7.894-3.896
	c6.721,0,10.96,5.796,10.96,12.125c0,6.528-4.139,12.032-11.01,12.032c-3.116,0-5.99-1.364-7.844-3.849H93.63v16.071h-3.896V23.047
	h3.896V26.309z"/>
<path fill="#FFFFFF" d="M122.087,25.529h0.095c1.365-1.802,2.534-3.116,5.066-3.116c1.315,0,2.388,0.439,3.508,1.071l-1.851,3.555
	c-0.778-0.536-1.315-1.021-2.337-1.021c-4.289,0-4.481,5.504-4.481,8.473v11.448h-3.899V23.047h3.899V25.529z"/>
<path fill="#FFFFFF" d="M136.096,34.247c0,4.48,2.632,8.72,7.502,8.72c5.019,0,7.647-4.046,7.647-8.671
	c0-4.575-2.874-8.278-7.695-8.278C139.021,26.017,136.096,29.962,136.096,34.247 M154.946,45.938h-3.896V42.77h-0.098
	c-1.997,2.535-4.676,3.8-7.892,3.8c-6.721,0-10.959-5.7-10.959-12.032c0-6.521,4.144-12.125,11.008-12.125
	c3.12,0,5.94,1.461,7.843,3.896h0.098v-3.263h3.896V45.938L154.946,45.938z"/>
<polygon fill="#FFFFFF" points="165.933,31.521 174.26,23.047 179.472,23.047 169.683,32.788 181.325,45.938 176.159,45.938 
	166.952,35.516 165.933,36.534 165.933,45.938 162.038,45.938 162.038,5.754 165.933,5.754 "/>
<polygon fill="#FFFFFF" points="189.696,45.938 185.801,45.938 185.801,26.649 183.415,26.649 183.415,23.047 185.801,23.047 
	185.801,14.815 189.696,14.815 189.696,23.047 193.789,23.047 193.789,26.649 189.696,26.649 "/>
<path fill="#FFFFFF" d="M201.934,45.938h-3.9V23.047h3.9V45.938z M202.758,14.424c0,1.561-1.267,2.776-2.775,2.776
	c-1.512,0-2.775-1.216-2.775-2.776c0-1.509,1.265-2.774,2.775-2.774C201.491,11.649,202.758,12.916,202.758,14.424"/>
<path fill="#FFFFFF" d="M226.894,29.865h-0.095c-1.805-2.291-4.046-3.848-7.112-3.848c-4.724,0-8.086,3.895-8.086,8.473
	c0,4.531,3.118,8.478,7.895,8.478c3.259,0,5.549-1.463,7.447-3.945h0.099v5.21c-2.241,1.509-4.531,2.339-7.255,2.339
	c-6.917,0-12.18-5.165-12.18-12.08c0-6.818,5.505-12.077,12.229-12.077c2.48,0,5.014,0.829,7.06,2.29L226.894,29.865L226.894,29.865
	z"/>
<path fill="#FFFFFF" d="M236.857,35.806c0,3.848,0.439,7.161,5.163,7.161c4.728,0,5.163-3.313,5.163-7.161v-12.76h3.897v13.198
	c0,6.085-2.288,10.325-9.062,10.325c-6.77,0-9.058-4.239-9.058-10.325V23.047h3.895L236.857,35.806L236.857,35.806z"/>
<path fill="#FFFFFF" d="M262.053,25.529h0.098c1.216-1.899,3.164-3.116,5.5-3.116c2.682,0,5.115,1.413,6.333,3.8
	c1.365-2.533,4.093-3.8,6.868-3.8c5.844,0,7.308,4.774,7.308,9.593v13.933h-3.896v-13.3c0-2.969-0.195-6.621-4.188-6.621
	c-4.479,0-4.969,4.335-4.969,7.793v12.128h-3.896V32.932c0-2.824-0.339-6.915-4.092-6.915c-4.577,0-5.063,4.627-5.063,8.086v11.835
	h-3.898V23.047h3.898L262.053,25.529L262.053,25.529z"/>
<path fill="#FFFFFF" d="M38.714,12.842c-16.436,0-31.926,9.929-33.652,25.074c-1.116,9.762,0.073,20.062,6.794,38.705L22.108,57.94
	c-6.991-11.746-7.487-20.242-5.935-26.726c2.502-10.458,11.572-16.252,23.967-16.252c12.396,0,24.375,6.796,24.26,15.461
	c-0.173,12.859-17.44,19.193-34.468,13.888l-5.466,9.969c19.282,5.334,43.935-2.996,44.006-19.204
	C68.528,22.794,55.147,12.842,38.714,12.842"/>
</svg>
